<svg version="1.2" xmlns="http://www.w3.org/2000/svg" viewBox="0 0 264 156" width="264" height="156"><style>.a{fill:#FFFFFF}</style><path fill-rule="evenodd" class="a" d="m263.7 156.2h-262.4c3.8-44.9 29.4-82.9 66.9-103.2l-21.8-37.9c-1.3-2.1-0.5-4.9 1.6-6.2 2.2-1.2 5-0.5 6.2 1.7l22.2 38.3c16.9-7.7 35.9-12 56.1-12 20.3 0 39.3 4.3 56.2 12l22.1-38.3c1.3-2.2 4-2.9 6.2-1.7 2.2 1.3 2.9 4.1 1.7 6.2l-21.9 37.9c37.5 20.3 63.2 58.3 66.9 103.2zm-180.6-48.4c0-6-4.9-10.9-11-10.9-6 0-10.9 4.9-10.9 10.9 0 6.1 4.9 11 10.9 11 6.1 0 11-4.9 11-11zm120.7 0c0-6-4.9-10.9-10.9-10.9-6 0-10.9 4.9-10.9 10.9 0 6.1 4.9 11 10.9 11 6 0 10.9-4.9 10.9-11z"/></svg>
